<?xml version="1.0" encoding="UTF-8"?>
<svg version="1.1" xmlns="http://www.w3.org/2000/svg" width="528" height="133">
<path d="M0 0 C0.495 0.495 0.495 0.495 1 1 C1.33 -0.98 1.66 -2.96 2 -5 C4.81256281 -5.02684312 7.62487241 -5.04676188 10.4375 -5.0625 C11.64116211 -5.07506836 11.64116211 -5.07506836 12.86914062 -5.08789062 C14.91295221 -5.0965143 16.95683902 -5.0522815 19 -5 C20.87288198 -3.12711802 20.15723451 0.05100887 20.17700195 2.54833984 C20.18357315 3.23307373 20.19014435 3.91780762 20.19691467 4.62329102 C20.21671153 6.90250757 20.22833176 9.18165765 20.23828125 11.4609375 C20.24235678 12.24063526 20.2464323 13.02033302 20.25063133 13.82365799 C20.27153123 17.96007271 20.28580907 22.09645399 20.29516602 26.23291016 C20.30616613 30.48400138 20.34047923 34.73455978 20.38033772 38.9854641 C20.40665156 42.26971322 20.41487143 45.55383912 20.41844749 48.83818436 C20.42328499 50.40330174 20.43481695 51.96841468 20.45348549 53.53342819 C20.57824292 64.69697991 20.0525859 75.89823936 11.8828125 84.4375 C4.7979805 90.31702863 -2.91531232 93.14449129 -12 94 C-12.74894531 94.07089844 -13.49789062 94.14179688 -14.26953125 94.21484375 C-23.23187138 94.61855276 -32.72709685 92.27641993 -40 87 C-44.32492365 82.86118987 -47.74363347 79.00264009 -49 73 C-49 72.01 -49 71.02 -49 70 C-46.39619004 69.80523861 -43.79224467 69.61891386 -41.1875 69.4375 C-40.08051758 69.35338867 -40.08051758 69.35338867 -38.95117188 69.26757812 C-35.63211484 69.04230276 -33.18767436 68.93744188 -30 70 C-28.8125 73.0625 -28.8125 73.0625 -28 76 C-20.08849692 78.03679122 -12.83758005 78.85269023 -5.0625 75.875 C0.68479234 70.65018879 0.61804682 63.28345197 1 56 C0.34 56.763125 -0.32 57.52625 -1 58.3125 C-6.57674608 63.82676153 -14.41568143 64.96542104 -22 65 C-30.98928773 64.48192578 -37.60652744 60.46746789 -43.85546875 54.11328125 C-51.29837197 45.05315461 -51.93312734 34.27472105 -51.22021484 23.00195312 C-50.17978296 13.54348148 -45.27887685 5.33472073 -37.98828125 -0.61328125 C-26.15514585 -8.86625387 -11.45664739 -9.00837753 0 0 Z M-28.51171875 14.98046875 C-31.93561682 19.62654566 -32.2952831 23.73870453 -32.3125 29.4375 C-32.32925781 30.71496094 -32.34601563 31.99242188 -32.36328125 33.30859375 C-31.83217079 38.70536136 -30.04109532 41.88454073 -26.375 45.8125 C-21.99354859 49.1745048 -17.15876881 49.32266993 -11.8203125 48.77734375 C-6.82268605 47.80610691 -4.05075837 46.00956814 -1 42 C2.51926087 35.62843496 3.0115576 28.83018754 1.53125 21.76171875 C-0.10818902 16.57992043 -2.58811207 14.09770855 -7 11 C-14.48242746 7.25878627 -22.85100882 9.4167303 -28.51171875 14.98046875 Z " fill="#A5A9AF" transform="translate(230,38)"/>
<path d="M0 0 C5.86165866 5.1534657 9.4364427 11.30867771 11 19 C10.59375 21.83203125 10.59375 21.83203125 10 24 C7.22754986 24.13487595 4.46162912 24.23400807 1.6875 24.3125 C0.90181641 24.35439453 0.11613281 24.39628906 -0.69335938 24.43945312 C-2.89750263 24.48634979 -4.84449488 24.46820163 -7 24 C-8.94921875 21.703125 -8.94921875 21.703125 -10 19 C-12.12431054 13.91833667 -12.12431054 13.91833667 -16.3515625 10.6640625 C-25.19539301 7.15144249 -32.91942359 6.92213179 -41.89453125 9.953125 C-47.08945566 12.53613009 -49.74945578 15.70282169 -52.25 20.875 C-52.75015625 21.88304688 -53.2503125 22.89109375 -53.765625 23.9296875 C-57.90879563 34.23516888 -56.51175519 45.72095691 -53 56 C-50.09060832 61.5178118 -46.1180578 65.72605067 -40.265625 68.1171875 C-33.17400613 70.03429978 -24.23906359 70.46045491 -17.375 67.5 C-11.98795067 64.22092649 -9.71855462 58.43710923 -7 53 C-1.06 53 4.88 53 11 53 C12.62672298 56.25344595 11.13919477 58.9319767 10.0703125 62.2734375 C6.16897223 72.21188826 -1.25906331 79.49386829 -10.75 84.17578125 C-23.85758293 88.97734375 -39.26346467 88.81898312 -52 83 C-63.66821544 76.50852803 -70.97378197 67.31728838 -74.75 54.625 C-77.96196262 40.6653163 -77.34303485 24.25591232 -70.25 11.625 C-63.24540339 1.01509631 -52.41212622 -6.92933223 -39.875 -9.6875 C-24.74078751 -10.90800101 -12.25917495 -9.61011033 0 0 Z " fill="#A6AAB0" transform="translate(80,18)"/>
<path d="M0 0 C4.78960073 5.02323979 6.65180299 10.34380777 6.73608398 17.16137695 C6.74957382 18.03941483 6.76306366 18.9174527 6.77696228 19.82209778 C6.79261986 21.2346711 6.79261986 21.2346711 6.80859375 22.67578125 C6.84153543 24.68164494 6.87474702 26.6875042 6.90820312 28.69335938 C6.9555589 31.84656715 6.99999698 34.99975743 7.03930664 38.15307617 C7.07917618 41.20249939 7.13068555 44.2515602 7.18359375 47.30078125 C7.1920079 48.2364241 7.20042206 49.17206696 7.20909119 50.13606262 C7.30696509 55.35554018 7.86877464 59.74185583 9.5625 64.6875 C6.28958382 66.64044291 3.84909202 66.93221499 0.0625 66.875 C-0.8759375 66.86855469 -1.814375 66.86210938 -2.78125 66.85546875 C-5.14370585 66.70607816 -7.17466665 66.35460889 -9.4375 65.6875 C-9.7675 64.0375 -10.0975 62.3875 -10.4375 60.6875 C-11.25734375 61.10902344 -12.0771875 61.53054687 -12.921875 61.96484375 C-13.99953125 62.51269531 -15.0771875 63.06054688 -16.1875 63.625 C-17.25484375 64.17027344 -18.3221875 64.71554688 -19.421875 65.27734375 C-27.25756566 68.94144262 -37.08628774 68.95441396 -45.375 66.625 C-51.08941118 64.36482244 -55.10296311 60.29855043 -57.875 54.875 C-59.09743035 47.94789467 -59.51174459 41.72862128 -55.4375 35.6875 C-49.49616599 28.75594366 -42.93669345 26.18343262 -34.25 24.5625 C-33.42008545 24.39782227 -32.5901709 24.23314453 -31.73510742 24.06347656 C-25.32563968 22.80732784 -18.89522516 21.66711499 -12.4375 20.6875 C-12.20321687 15.8977679 -12.20321687 15.8977679 -14.4375 11.6875 C-19.91023357 9.86325548 -25.74075715 10.08047002 -31.4375 10.6875 C-34.76025289 12.75278902 -34.76025289 12.75278902 -36.4375 15.6875 C-37.0975 16.6775 -37.7575 17.6675 -38.4375 18.6875 C-41.38814148 18.9083564 -44.12118231 18.96810989 -47.0625 18.875 C-48.26519531 18.85469727 -48.26519531 18.85469727 -49.4921875 18.83398438 C-51.47424378 18.79859051 -53.45595551 18.74478234 -55.4375 18.6875 C-56.83518557 14.49444329 -55.61459919 12.29771768 -53.92578125 8.328125 C-50.54965271 2.33793367 -45.33107778 -1.92670558 -38.875 -4.25 C-26.79878746 -7.47170902 -10.44386186 -7.9608849 0 0 Z M-22.625 35.375 C-23.57181641 35.52388672 -24.51863281 35.67277344 -25.49414062 35.82617188 C-31.53858959 36.90177166 -35.21978926 38.13460695 -39.4375 42.6875 C-40.08633948 46.22007049 -39.8939847 47.88321743 -38.125 51 C-35.24904847 53.87595153 -32.13718577 53.91995158 -28.25 54.0625 C-22.43398312 54.00857666 -18.77870293 52.51797318 -14.4375 48.6875 C-10.8222946 44.73336909 -11.17556056 40.80314369 -11.33203125 35.69921875 C-11.38423828 34.70341797 -11.38423828 34.70341797 -11.4375 33.6875 C-15.14420111 33.6875 -18.98549955 34.74130446 -22.625 35.375 Z " fill="#A6AAB0" transform="translate(515.4375,37.3125)"/>
<path d="M0 0 C7.77383159 8.41402948 10.23888343 19.48896253 10.125 30.6875 C8.56358256 40.91538946 4.99422365 49.75541682 -2.875 56.6875 C-13.92213616 63.46210138 -25.15906941 65.51463815 -37.94921875 63.109375 C-47.28009261 60.18099804 -55.21415283 53.30847886 -59.98046875 44.76953125 C-64.26000862 34.80885548 -64.41307256 21.89419101 -60.875 11.6875 C-56.99771632 2.41027467 -51.02191358 -3.15040069 -41.875 -7.1875 C-27.55258354 -12.59858752 -11.49816564 -10.64735 0 0 Z M-39.6875 11.3125 C-45.16838896 18.18516526 -45.29235519 24.34818324 -44.34375 32.91796875 C-43.3901818 38.55196756 -41.1757142 42.15760324 -36.60546875 45.64453125 C-32.11749907 48.34947009 -27.80190749 49.136535 -22.6875 48 C-17.72676368 46.44673618 -14.34934084 44.80354112 -11.625 40.25 C-7.98432913 32.8386343 -7.78429555 24.84581071 -9.875 16.875 C-12.92701959 12.01084378 -16.53052142 7.76025728 -22.15234375 5.95703125 C-29.19517263 4.93371423 -34.6841207 6.0615308 -39.6875 11.3125 Z " fill="#A5A9AF" transform="translate(161.875,41.3125)"/>
<path d="M0 0 C7.49832453 7.668741 7.28879982 15.10514781 7.1953125 25.27734375 C7.1924826 26.4438295 7.18965271 27.61031525 7.18673706 28.81214905 C7.17558388 32.52070576 7.15048786 36.22901685 7.125 39.9375 C7.11496393 42.45898088 7.10583918 44.98046555 7.09765625 47.50195312 C7.07566044 53.6680519 7.04223118 59.83400839 7 66 C3.95017742 67.52491129 0.77877461 67.14361434 -2.5625 67.125 C-3.26052734 67.12886719 -3.95855469 67.13273437 -4.67773438 67.13671875 C-9.87336006 67.12663994 -9.87336006 67.12663994 -11 66 C-11.10661808 64.58939073 -11.14618384 63.173619 -11.15771484 61.7590332 C-11.16797699 60.85752029 -11.17823914 59.95600739 -11.18881226 59.0271759 C-11.19611359 58.04496567 -11.20341492 57.06275543 -11.2109375 56.05078125 C-11.2390175 53.98501827 -11.26768203 51.91926317 -11.296875 49.85351562 C-11.33807735 46.58602207 -11.37495009 43.31867378 -11.40136719 40.05102539 C-11.42903052 36.90479801 -11.47491764 33.75924697 -11.5234375 30.61328125 C-11.52669037 29.64119217 -11.52994324 28.66910309 -11.53329468 27.66755676 C-11.62848463 22.39695587 -11.96185194 18.51158275 -15 14 C-19.46137989 11.02574674 -23.76774934 11.50132508 -29 12 C-32.78986889 13.57911204 -34.83327915 15.53324664 -37 19 C-37.92158331 21.76474993 -38.14304854 23.50432939 -38.18945312 26.36376953 C-38.20617065 27.24122833 -38.22288818 28.11868713 -38.2401123 29.0227356 C-38.25368774 29.96656097 -38.26726318 30.91038635 -38.28125 31.8828125 C-38.29965942 32.85282196 -38.31806885 33.82283142 -38.33703613 34.82223511 C-38.41581305 38.97821915 -38.48364986 43.13436471 -38.55224609 47.29052734 C-38.60382491 50.32137437 -38.66111716 53.35207555 -38.71875 56.3828125 C-38.73232544 57.33068634 -38.74590088 58.27856018 -38.7598877 59.25515747 C-38.77660522 60.12631195 -38.79332275 60.99746643 -38.81054688 61.89501953 C-38.82933899 63.0505986 -38.82933899 63.0505986 -38.84851074 64.22952271 C-39 66 -39 66 -40 67 C-42.69654854 67.07319621 -45.36691458 67.09242537 -48.0625 67.0625 C-48.82111328 67.05798828 -49.57972656 67.05347656 -50.36132812 67.04882812 C-52.24091871 67.0370068 -54.12046899 67.01907078 -56 67 C-58.0566037 63.60108009 -58.24823411 60.98207898 -58.24291992 57.04150391 C-58.24599655 55.83990631 -58.24907318 54.63830872 -58.25224304 53.40029907 C-58.24505753 52.105466 -58.23787201 50.81063293 -58.23046875 49.4765625 C-58.22927561 48.1290186 -58.22882407 46.78147385 -58.2290802 45.43392944 C-58.22751759 42.61117332 -58.21924731 39.78854442 -58.20581055 36.96582031 C-58.18885377 33.35910415 -58.1849955 29.7525281 -58.18575573 26.14577675 C-58.18548286 23.36270832 -58.17998237 20.57967012 -58.17275429 17.79661179 C-58.1680511 15.82360959 -58.16629755 13.85060107 -58.16459656 11.87759399 C-58.15821671 10.66969208 -58.15183685 9.46179016 -58.14526367 8.21728516 C-58.14145187 7.1590152 -58.13764008 6.10074524 -58.13371277 5.01040649 C-58 2 -58 2 -57 -4 C-51.39 -4 -45.78 -4 -40 -4 C-39.34 -2.02 -38.68 -0.04 -38 2 C-37.46890625 1.66226563 -36.9378125 1.32453125 -36.390625 0.9765625 C-35.68421875 0.53054687 -34.9778125 0.08453125 -34.25 -0.375 C-33.20585937 -1.03628906 -33.20585937 -1.03628906 -32.140625 -1.7109375 C-22.39419352 -7.58013894 -8.89720877 -7.81218331 0 0 Z " fill="#A6A9B0" transform="translate(322,37)"/>
<path d="M0 0 C1.27230469 0.01804687 2.54460937 0.03609375 3.85546875 0.0546875 C5.31919922 0.08949219 5.31919922 0.08949219 6.8125 0.125 C9.26239101 3.86735319 9.04336143 7.56725419 8.9375 11.875 C8.92847656 12.57238281 8.91945313 13.26976562 8.91015625 13.98828125 C8.88669888 15.70066958 8.85083104 17.41288004 8.8125 19.125 C9.81152344 19.11339844 10.81054688 19.10179688 11.83984375 19.08984375 C13.13019531 19.08082031 14.42054688 19.07179688 15.75 19.0625 C17.03777344 19.05089844 18.32554687 19.03929688 19.65234375 19.02734375 C22.8125 19.125 22.8125 19.125 23.8125 20.125 C23.88508946 22.31139453 23.89623783 24.50000389 23.875 26.6875 C23.86597656 27.88503906 23.85695313 29.08257812 23.84765625 30.31640625 C23.83605469 31.24324219 23.82445312 32.17007813 23.8125 33.125 C20.92834117 34.56707941 18.39528472 34.21894887 15.1875 34.1875 C13.99898438 34.17847656 12.81046875 34.16945312 11.5859375 34.16015625 C10.67070312 34.14855469 9.75546875 34.13695312 8.8125 34.125 C8.88122358 39.50062667 8.96911316 44.87546399 9.07495117 50.25048828 C9.10825026 52.0798265 9.13626657 53.9092687 9.15893555 55.73876953 C9.19239077 58.36536056 9.24469963 60.99099441 9.30078125 63.6171875 C9.30717117 64.43806854 9.3135611 65.25894958 9.32014465 66.10470581 C9.35192217 68.65114374 9.35192217 68.65114374 9.8125 72.125 C13.55206233 74.61804155 16.24364607 74.52680557 20.6328125 74.78125 C21.35210937 74.8946875 22.07140625 75.008125 22.8125 75.125 C24.11339831 77.72679663 23.98090078 79.7219188 24 82.625 C24.01417969 83.6046875 24.02835937 84.584375 24.04296875 85.59375 C23.8125 88.125 23.8125 88.125 21.8125 90.125 C13.20162137 91.83888275 3.54707505 91.88683545 -4.1875 87.375 C-10.60174237 80.15897733 -10.34651518 71.38068837 -10.28515625 62.25 C-10.2837413 61.44006592 -10.28232635 60.63013184 -10.28086853 59.7956543 C-10.27532383 57.23873006 -10.26278207 54.68189724 -10.25 52.125 C-10.24497784 50.37890753 -10.24041619 48.63281366 -10.23632812 46.88671875 C-10.2253726 42.63277791 -10.20814694 38.37890439 -10.1875 34.125 C-10.89777344 34.13660156 -11.60804688 34.14820313 -12.33984375 34.16015625 C-13.25894531 34.16917969 -14.17804688 34.17820313 -15.125 34.1875 C-16.04152344 34.19910156 -16.95804687 34.21070313 -17.90234375 34.22265625 C-20.1875 34.125 -20.1875 34.125 -21.1875 33.125 C-21.26021741 30.77186445 -21.27120868 28.41666332 -21.25 26.0625 C-21.24097656 24.77214844 -21.23195313 23.48179688 -21.22265625 22.15234375 C-21.21105469 21.15332031 -21.19945312 20.15429688 -21.1875 19.125 C-17.5575 18.795 -13.9275 18.465 -10.1875 18.125 C-10.22230469 16.99320313 -10.25710938 15.86140625 -10.29296875 14.6953125 C-10.32110336 13.21355647 -10.34840387 11.73178444 -10.375 10.25 C-10.40013672 9.50363281 -10.42527344 8.75726563 -10.45117188 7.98828125 C-10.48046875 5.8203125 -10.48046875 5.8203125 -10.1875 2.125 C-6.4507157 -0.36618953 -4.44298181 -0.0815226 0 0 Z " fill="#A5A9AF" transform="translate(392.1875,13.875)"/>
<path d="M0 0 C0.79792969 0.00386719 1.59585937 0.00773437 2.41796875 0.01171875 C3.21589844 0.00785156 4.01382812 0.00398438 4.8359375 0 C10.79136108 0.01011108 10.79136108 0.01011108 11.91796875 1.13671875 C12.0122247 3.28415424 12.03539523 5.43472901 12.03149414 7.58422852 C12.03164017 8.25737091 12.03178619 8.93051331 12.03193665 9.62405396 C12.03123753 11.85877659 12.02344527 14.09341685 12.015625 16.328125 C12.01376081 17.87369237 12.01233691 19.41926032 12.01133728 20.96482849 C12.00751215 25.04028952 11.99768192 29.11571512 11.9866333 33.19116211 C11.97641907 37.34683757 11.97183964 41.50251874 11.96679688 45.65820312 C11.95605964 53.81772462 11.93898329 61.97721728 11.91796875 70.13671875 C8.12542171 71.18061512 4.67198097 71.26988769 0.73046875 71.26171875 C-1.14705078 71.26558594 -1.14705078 71.26558594 -3.0625 71.26953125 C-6.08203125 71.13671875 -6.08203125 71.13671875 -7.08203125 70.13671875 C-7.18155418 67.99471551 -7.21002804 65.8493917 -7.21142578 63.70507812 C-7.2131781 63.03354202 -7.21493042 62.36200592 -7.21673584 61.67012024 C-7.22115355 59.44021047 -7.21821667 57.21037939 -7.21484375 54.98046875 C-7.21551681 53.43729639 -7.21648686 51.89412414 -7.21774292 50.35095215 C-7.21921978 47.11270135 -7.21706572 43.87447808 -7.21240234 40.63623047 C-7.20670505 36.47629352 -7.20998412 32.31642109 -7.21597481 28.15648651 C-7.21958074 24.96872467 -7.21844169 21.78097824 -7.21584702 18.59321594 C-7.21517783 17.05894463 -7.21600586 15.52467193 -7.21832657 13.99040222 C-7.22085363 11.84968334 -7.21701179 9.70907033 -7.21142578 7.56835938 C-7.21063019 6.3478186 -7.20983459 5.12727783 -7.20901489 3.86975098 C-6.97486729 -1.1697402 -4.44642522 0.00754911 0 0 Z " fill="#A5A9AF" transform="translate(434.08203125,32.86328125)"/>
<path d="M0 0 C1.58206057 0.00667536 3.16410534 0.0186375 4.74609375 0.03515625 C5.55240234 0.03966797 6.35871094 0.04417969 7.18945312 0.04882812 C9.18753131 0.06065107 11.18557158 0.07858711 13.18359375 0.09765625 C14.21722548 7.76096581 14.34473675 15.30459717 14.3515625 23.03125 C14.3548909 24.34553482 14.3582193 25.65981964 14.36164856 27.01393127 C14.36759533 29.77646713 14.36949262 32.53897188 14.36889648 35.30151367 C14.36879406 38.84462946 14.38254832 42.38754847 14.39966869 45.93061733 C14.41341948 49.31833164 14.41287532 52.7060081 14.4140625 56.09375 C14.42124802 57.3676207 14.42843353 58.64149139 14.43583679 59.95396423 C14.43276016 61.12600906 14.42968353 62.29805389 14.42651367 63.50561523 C14.42793869 64.53992172 14.42936371 65.57422821 14.43083191 66.63987732 C14.18359375 69.09765625 14.18359375 69.09765625 12.18359375 71.09765625 C9.64130216 71.2696691 7.22209379 71.33023242 4.68359375 71.28515625 C3.99394531 71.28451172 3.30429687 71.28386719 2.59375 71.28320312 C-2.53529576 71.2382115 -2.53529576 71.2382115 -4.81640625 70.09765625 C-4.83953191 61.11844848 -4.85732248 52.13925088 -4.86821842 43.16001987 C-4.87344676 38.99102797 -4.88054351 34.82205638 -4.8918457 30.65307617 C-4.90267633 26.63307939 -4.90868346 22.6131022 -4.91128349 18.59309196 C-4.91313743 17.0560265 -4.91675744 15.51896216 -4.92213631 13.98190498 C-4.92934909 11.83630138 -4.93039709 9.6907797 -4.92993164 7.54516602 C-4.93215225 6.32160904 -4.93437286 5.09805206 -4.93666077 3.8374176 C-4.75009267 -0.41316744 -4.44571436 0.11375932 0 0 Z " fill="#A6AAB1" transform="translate(348.81640625,32.90234375)"/>
<path d="M0 0 C2.87029869 1.79393668 4.49131638 2.98263276 6 6 C6.48770683 10.87706826 6.46279408 13.10632868 4.1875 17.5 C1.5778914 20.22924681 -0.79745965 20.50262282 -4.5 20.6875 C-8.36306685 20.45842326 -9.81951493 20.11912015 -13.125 17.9375 C-15.38354103 14.39911905 -16 12.19859664 -16 8 C-14.09341881 2.68164194 -14.09341881 2.68164194 -11.1640625 0.85546875 C-7.47539045 -0.60268861 -3.89610198 -0.58337356 0 0 Z " fill="#A6AAB0" transform="translate(441,5)"/>
<path d="M0 0 C2.87029869 1.79393668 4.49131638 2.98263276 6 6 C6.48770683 10.87706826 6.46279408 13.10632868 4.1875 17.5 C1.58435066 20.21503255 -0.81020457 20.53090284 -4.5 20.75 C-8.18979543 20.53090284 -10.58435066 20.21503255 -13.1875 17.5 C-15.52234191 12.99133976 -15.71691241 11.01838689 -15 6 C-11.03690229 -0.20885308 -7.02452124 -0.90991208 0 0 Z " fill="#A4A8AF" transform="translate(358,5)"/>
<path d="M0 0 C0.33 0 0.66 0 1 0 C2.29473257 6.91270713 2.12601597 13.79571842 2.09765625 20.80859375 C2.09578833 22.14380337 2.0943662 23.47901369 2.09336853 24.81422424 C2.08957277 28.30762668 2.079768 31.80098673 2.06866455 35.29437256 C2.0583868 38.8674665 2.05385735 42.44056737 2.04882812 46.01367188 C2.03814275 53.00913186 2.02110215 60.00456389 2 67 C1.01 67.495 1.01 67.495 0 68 C0 67.34 0 66.68 0 66 C-0.66 65.67 -1.32 65.34 -2 65 C-1.89257229 56.82027465 -1.77995404 48.64064445 -1.66066074 40.46108437 C-1.60543556 36.66321358 -1.55201622 32.8653351 -1.50268555 29.06738281 C-1.45503599 25.40392633 -1.402693 21.74056454 -1.34705925 18.07722092 C-1.32663837 16.67777227 -1.30792483 15.27829765 -1.29092598 13.87880325 C-1.26687639 11.92255986 -1.23625878 9.96640051 -1.20532227 8.01025391 C-1.18977798 6.8955069 -1.1742337 5.78075989 -1.15821838 4.63223267 C-1 2 -1 2 0 0 Z " fill="#9A9CA3" transform="translate(361,35)"/>
<path d="M0 0 C0.66 0 1.32 0 2 0 C2 21.12 2 42.24 2 64 C0.515 64.495 0.515 64.495 -1 65 C-1.02314367 56.82036512 -1.04092544 48.64074387 -1.05181217 40.46108437 C-1.05703656 36.66317211 -1.06412617 32.8652822 -1.07543945 29.06738281 C-1.08628408 25.40399327 -1.09228019 21.74062527 -1.09487724 18.07722092 C-1.09672864 16.67774491 -1.10034382 15.27827012 -1.10573006 13.87880325 C-1.11296126 11.92263178 -1.11340823 9.96643874 -1.11352539 8.01025391 C-1.115746 6.8955069 -1.11796661 5.78075989 -1.12025452 4.63223267 C-1 2 -1 2 0 0 Z " fill="#9A9FA3" transform="translate(444,36)"/>
<path d="M0 0 C1.65322266 0.01740234 1.65322266 0.01740234 3.33984375 0.03515625 C4.99693359 0.04869141 4.99693359 0.04869141 6.6875 0.0625 C7.54214844 0.07410156 8.39679688 0.08570313 9.27734375 0.09765625 C9.27734375 0.75765625 9.27734375 1.41765625 9.27734375 2.09765625 C5.64734375 2.09765625 2.01734375 2.09765625 -1.72265625 2.09765625 C-1.72265625 23.21765625 -1.72265625 44.33765625 -1.72265625 66.09765625 C-2.71265625 66.59265625 -2.71265625 66.59265625 -3.72265625 67.09765625 C-3.7457826 58.50959905 -3.76357283 49.92155476 -3.77446842 41.33347416 C-3.77969661 37.34608425 -3.78679309 33.35871558 -3.7980957 29.37133789 C-3.80892686 25.52640511 -3.81493357 21.6814928 -3.81753349 17.83654594 C-3.81938733 16.36646642 -3.82300716 14.89638807 -3.82838631 13.42631721 C-3.8355998 11.37411158 -3.83664706 9.32199158 -3.83618164 7.26977539 C-3.83840225 6.09951309 -3.84062286 4.92925079 -3.84291077 3.723526 C-3.67840295 0.13134406 -3.60524743 0.12931304 0 0 Z " fill="#9A9BA0" transform="translate(347.72265625,32.90234375)"/>
<path d="M0 0 C0.33 0 0.66 0 1 0 C1.05080039 6.72604133 1.08577579 13.45203298 1.10986328 20.17822266 C1.11990733 22.46535084 1.13354508 24.75246623 1.15087891 27.03955078 C1.17519708 30.33108686 1.18649924 33.62245282 1.1953125 36.9140625 C1.20563507 37.93303619 1.21595764 38.95200989 1.22659302 40.00186157 C1.22739081 45.0747036 1.03297852 49.25169376 -1 54 C-1.66 54 -2.32 54 -3 54 C-2.76120117 52.84226074 -2.76120117 52.84226074 -2.51757812 51.66113281 C-1.84521126 46.90508872 -1.7859698 42.2197134 -1.71875 37.421875 C-1.70034058 36.41408997 -1.68193115 35.40630493 -1.66296387 34.36798096 C-1.58450155 30.07029508 -1.51630941 25.77246305 -1.44775391 21.47460938 C-1.39613397 18.33195 -1.33887452 15.18942907 -1.28125 12.046875 C-1.26767456 11.06982605 -1.25409912 10.0927771 -1.2401123 9.08612061 C-1.22339478 8.18468323 -1.20667725 7.28324585 -1.18945312 6.35449219 C-1.17692505 5.55984558 -1.16439697 4.76519897 -1.15148926 3.94647217 C-1 2 -1 2 0 0 Z " fill="#9EA1A6" transform="translate(249,58)"/>
<path d="M0 0 C0.66 0.66 1.32 1.32 2 2 C1.51781006 2.93138794 1.51781006 2.93138794 1.02587891 3.8815918 C-0.40472779 8.23026846 -0.35658573 12.34281678 -0.4140625 16.89453125 C-0.43342865 17.84188644 -0.4527948 18.78924164 -0.4727478 19.76530457 C-0.53236371 22.78094577 -0.57885705 25.79662552 -0.625 28.8125 C-0.66319633 30.86134446 -0.70224902 32.91017314 -0.7421875 34.95898438 C-0.83805053 39.97252762 -0.92214807 44.98614603 -1 50 C-1.66 49.67 -2.32 49.34 -3 49 C-3.07432654 42.98602991 -3.12868588 36.97232904 -3.16479492 30.95800781 C-3.17985288 28.91336406 -3.20030357 26.86875245 -3.22631836 24.82421875 C-3.26283311 21.88012748 -3.27975651 18.93646443 -3.29296875 15.9921875 C-3.30845261 15.0825827 -3.32393646 14.17297791 -3.33988953 13.23580933 C-3.34125843 8.03768042 -2.83272212 4.54150375 0 0 Z " fill="#95989D" transform="translate(284,52)"/>
<path d="M0 0 C0.66 0 1.32 0 2 0 C2 10.56 2 21.12 2 32 C0.515 32.495 0.515 32.495 -1 33 C-1.02465392 28.46102295 -1.04283789 23.92208457 -1.05493164 19.38305664 C-1.0599714 17.83780234 -1.0668032 16.29255284 -1.07543945 14.74731445 C-1.08752076 12.53074971 -1.09323173 10.31424782 -1.09765625 8.09765625 C-1.10281754 7.4028566 -1.10797882 6.70805695 -1.11329651 5.99220276 C-1.11349277 4.3277067 -1.06189129 2.66334501 -1 1 C-0.67 0.67 -0.34 0.34 0 0 Z " fill="#9D9FA4" transform="translate(383,49)"/>
<path d="M0 0 C3 3 3 3 3.36076355 5.06913757 C3.35410172 5.8618959 3.34743988 6.65465424 3.34057617 7.47143555 C3.34034958 8.37214279 3.34012299 9.27285004 3.33988953 10.20085144 C3.32440567 11.16968765 3.30892181 12.13852386 3.29296875 13.13671875 C3.28872391 14.13129593 3.28447906 15.12587311 3.28010559 16.15058899 C3.26330153 19.32983375 3.22564576 22.50844656 3.1875 25.6875 C3.17245541 27.84178773 3.15876662 29.99608538 3.14648438 32.15039062 C3.11339244 37.43380967 3.06317592 42.71685969 3 48 C2.01 48.495 2.01 48.495 1 49 C0.67 32.83 0.34 16.66 0 0 Z " fill="#9DA1A6" transform="translate(310,53)"/>
<path d="M0 0 C0.33 0 0.66 0 1 0 C1.02505615 1.24088379 1.0501123 2.48176758 1.07592773 3.76025391 C1.17033341 8.37851707 1.27047234 12.99664143 1.37231445 17.61474609 C1.41553815 19.61080673 1.45722174 21.60690136 1.49731445 23.60302734 C1.55532239 26.47764309 1.61892791 29.35208975 1.68359375 32.2265625 C1.70030624 33.11429352 1.71701874 34.00202454 1.73423767 34.91665649 C1.84000025 39.37310342 2.11818946 43.61291411 3 48 C2.01 47.67 1.02 47.34 0 47 C-0.12375 46.05125 -0.2475 45.1025 -0.375 44.125 C-0.71687177 40.91332809 -0.71687177 40.91332809 -3 39 C-2.34 39 -1.68 39 -1 39 C-1.00523682 37.96069336 -1.01047363 36.92138672 -1.01586914 35.85058594 C-1.0339898 31.98910384 -1.04545786 28.12762548 -1.05493164 24.26611328 C-1.05995569 22.59585945 -1.06677605 20.92561001 -1.07543945 19.25537109 C-1.08758946 16.85252804 -1.09324763 14.44974321 -1.09765625 12.046875 C-1.10281754 11.30193787 -1.10797882 10.55700073 -1.11329651 9.78948975 C-1.11366364 6.38497809 -1.07330918 3.25335241 0 0 Z " fill="#9EA1A6" transform="translate(521,53)"/>
<path d="M0 0 C0.99 0.66 1.98 1.32 3 2 C3.36247201 4.80915807 3.52199976 7.3140846 3.5 10.125 C3.49790527 10.89384521 3.49581055 11.66269043 3.49365234 12.45483398 C3.32250657 18.60628326 2.18381302 22.318114 -2 27 C-2.66 27 -3.32 27 -4 27 C-3.71125 26.29875 -3.4225 25.5975 -3.125 24.875 C-2.75375 23.92625 -2.3825 22.9775 -2 22 C-1.4740625 20.68515625 -1.4740625 20.68515625 -0.9375 19.34375 C0.19141564 15.31728422 0.2225763 11.77574551 0.125 7.625 C0.11597656 6.88894531 0.10695312 6.15289062 0.09765625 5.39453125 C0.07430144 3.5962112 0.03843836 1.79806089 0 0 Z " fill="#9EA1A8" transform="translate(152,58)"/>
<path d="M0 0 C4.95 0 9.9 0 15 0 C14.67 0.66 14.34 1.32 14 2 C11.05859375 2.4140625 11.05859375 2.4140625 7.4375 2.625 C6.23996094 2.69976562 5.04242188 2.77453125 3.80859375 2.8515625 C2.88175781 2.90054688 1.95492187 2.94953125 1 3 C0.67 4.65 0.34 6.3 0 8 C-0.66 8 -1.32 8 -2 8 C-2 8.99 -2 9.98 -2 11 C-4 12.6875 -4 12.6875 -6 14 C-6 8.73833096 -2.54151474 4.50059903 0 0 Z " fill="#9C9DA4" transform="translate(73,71)"/>
<path d="M0 0 C0.66 0.33 1.32 0.66 2 1 C2 7.27 2 13.54 2 20 C-0.64 20 -3.28 20 -6 20 C-5.67 19.34 -5.34 18.68 -5 18 C-2.9375 17.375 -2.9375 17.375 -1 17 C-1.01160156 15.85660156 -1.02320313 14.71320312 -1.03515625 13.53515625 C-1.04453288 12.04427246 -1.05363321 10.55338691 -1.0625 9.0625 C-1.07087891 8.30775391 -1.07925781 7.55300781 -1.08789062 6.77539062 C-1.09652441 4.85005687 -1.05224333 2.92464419 -1 1 C-0.67 0.67 -0.34 0.34 0 0 Z " fill="#9A9CA3" transform="translate(383,15)"/>
<path d="M0 0 C0.66 0.33 1.32 0.66 2 1 C1.525625 1.598125 1.05125 2.19625 0.5625 2.8125 C-2.30386933 6.82541706 -2.29163098 10.9317504 -2.5625 15.6875 C-2.60568359 16.38939453 -2.64886719 17.09128906 -2.69335938 17.81445312 C-2.7991736 19.54275206 -2.90006581 21.2713511 -3 23 C-5.73946515 20.26053485 -5.29930796 18.63379385 -5.3125 14.8125 C-5.23457633 9.39980167 -4.75189805 5.65705823 -2 1 C-1.34 0.67 -0.68 0.34 0 0 Z " fill="#9CA0A7" transform="translate(201,52)"/>
<path d="M0 0 C1.98 0.99 1.98 0.99 4 2 C4 2.66 4 3.32 4 4 C9.445 5.485 9.445 5.485 15 7 C15 7.33 15 7.66 15 8 C11.29219634 8.28327872 7.69831906 8.44795002 4 8 C1.875 5.6875 1.875 5.6875 1 3 C0.67 2.01 0.34 1.02 0 0 Z " fill="#9EA0A5" transform="translate(69,34)"/>
<path d="M0 0 C3.63 0 7.26 0 11 0 C10.67 0.66 10.34 1.32 10 2 C6.9375 2.625 6.9375 2.625 4 3 C3.67 4.32 3.34 5.64 3 7 C2.34 7 1.68 7 1 7 C0.67 4.69 0.34 2.38 0 0 Z " fill="#9AA0A5" transform="translate(181,108)"/>
<path d="M0 0 C0.33 0.99 0.66 1.98 1 3 C-1 5 -1 5 -3.6015625 5.1953125 C-4.59929687 5.17210937 -5.59703125 5.14890625 -6.625 5.125 C-8.12933594 5.09792969 -8.12933594 5.09792969 -9.6640625 5.0703125 C-10.43492187 5.04710937 -11.20578125 5.02390625 -12 5 C-12 4.34 -12 3.68 -12 3 C-10.68 3 -9.36 3 -8 3 C-7.34 2.34 -6.68 1.68 -6 1 C-5.01 1.33 -4.02 1.66 -3 2 C-2.01 1.34 -1.02 0.68 0 0 Z " fill="#A1A3A8" transform="translate(443,20)"/>
<path d="M0 0 C1.65322266 0.01740234 1.65322266 0.01740234 3.33984375 0.03515625 C4.99693359 0.04869141 4.99693359 0.04869141 6.6875 0.0625 C7.54214844 0.07410156 8.39679688 0.08570313 9.27734375 0.09765625 C9.27734375 0.75765625 9.27734375 1.41765625 9.27734375 2.09765625 C5.64734375 2.09765625 2.01734375 2.09765625 -1.72265625 2.09765625 C-2.05265625 3.08765625 -2.38265625 4.07765625 -2.72265625 5.09765625 C-3.28515625 3.16015625 -3.28515625 3.16015625 -3.72265625 1.09765625 C-2.72265625 0.09765625 -2.72265625 0.09765625 0 0 Z " fill="#A1A3A8" transform="translate(347.72265625,32.90234375)"/>
<path d="M0 0 C0.19294408 4.82360189 -0.24252386 8.49646738 -2 13 C-2.99 12.67 -3.98 12.34 -5 12 C-4.67 11.484375 -4.34 10.96875 -4 10.4375 C-2.67989123 7.21973488 -2.86757895 4.4429472 -3 1 C-1 0 -1 0 0 0 Z " fill="#9DA1A6" transform="translate(171,71)"/>
<path d="M0 0 C0.66 0 1.32 0 2 0 C2 1.65 2 3.3 2 5 C1.01 5.33 0.02 5.66 -1 6 C-1 7.98 -1 9.96 -1 12 C-1.66 11.67 -2.32 11.34 -3 11 C-3.75 8.625 -3.75 8.625 -4 6 C-3.34 5.01 -2.68 4.02 -2 3 C-1.34 3 -0.68 3 0 3 C0 2.01 0 1.02 0 0 Z " fill="#ACB0B5" transform="translate(170,67)"/>
<path d="M0 0 C1.61949011 2.57213134 2.04408751 3.67669159 1.625 6.75 C1.41875 7.4925 1.2125 8.235 1 9 C-0.65 9 -2.3 9 -4 9 C-4 8.34 -4 7.68 -4 7 C-3.34 7 -2.68 7 -2 7 C-1.34 4.69 -0.68 2.38 0 0 Z " fill="#A1A5A8" transform="translate(89,33)"/>
<path d="M0 0 C0.99 0.33 1.98 0.66 3 1 C2.2575 1.5775 1.515 2.155 0.75 2.75 C-1.99198619 4.90659314 -1.99198619 4.90659314 -4.1875 7.25 C-6 9 -6 9 -8 9 C-6.40758592 4.70048197 -3.64459275 2.60328053 0 0 Z " fill="#A1A2A7" transform="translate(194,36)"/>
<path d="M0 0 C0.66 0.66 1.32 1.32 2 2 C1.01 5.3 0.02 8.6 -1 12 C-1.66 11.67 -2.32 11.34 -3 11 C-3.39253254 6.55129785 -2.15305957 3.85756507 0 0 Z " fill="#9C9EA2" transform="translate(284,52)"/>
<path d="M0 0 C0.66 0.66 1.32 1.32 2 2 C2.66 2 3.32 2 4 2 C4.33 3.32 4.66 4.64 5 6 C1.98968256 6.93423645 1.13349732 7.04449911 -2 6 C-1.34 4.02 -0.68 2.04 0 0 Z " fill="#9FA2A9" transform="translate(183,48)"/>
<path d="M0 0 C2.13671875 0.3984375 2.13671875 0.3984375 4 1 C3.27683594 1.61488281 3.27683594 1.61488281 2.5390625 2.2421875 C1.90742187 2.78101563 1.27578125 3.31984375 0.625 3.875 C-0.00148438 4.40867187 -0.62796875 4.94234375 -1.2734375 5.4921875 C-2.55836651 6.61432007 -3.79371975 7.79371975 -5 9 C-4.64947365 5.84526281 -4.13480924 4.1766466 -2.1875 1.625 C-1.465625 1.08875 -0.74375 0.5525 0 0 Z " fill="#A1A3A7" transform="translate(110,40)"/>
<path d="M0 0 C-0.33 0.99 -0.66 1.98 -1 3 C-4.58611131 4.46704554 -8.1911316 5.32784675 -12 6 C-9.1490916 2.47828963 -4.56486714 0 0 0 Z " fill="#9FA2A7" transform="translate(37,10)"/>
<path d="M0 0 C1.11375 0.556875 1.11375 0.556875 2.25 1.125 C1.92 1.785 1.59 2.445 1.25 3.125 C-1.625 3.25 -1.625 3.25 -4.75 3.125 C-5.41 2.465 -6.07 1.805 -6.75 1.125 C-4.02098495 -0.69434337 -3.21400584 -1.02263822 0 0 Z " fill="#B0B2B5" transform="translate(350.75,100.875)"/>
<path d="M0 0 C0.66 0.33 1.32 0.66 2 1 C1.3125 2.9375 1.3125 2.9375 0 5 C-2.625 5.75 -2.625 5.75 -5 6 C-5 5.01 -5 4.02 -5 3 C-2.625 1.25 -2.625 1.25 0 0 Z " fill="#B1B5BA" transform="translate(433,98)"/>
<path d="M0 0 C0 3.57870074 -0.64872567 4.39680342 -3 7 C-5.1875 8.25 -5.1875 8.25 -7 9 C-5.64978174 4.58110387 -3.73884332 2.65654657 0 0 Z " fill="#A1A3A9" transform="translate(471,36)"/>
<path d="M0 0 C0.66 0 1.32 0 2 0 C2 0.66 2 1.32 2 2 C2.66 2.33 3.32 2.66 4 3 C3.01 3.33 2.02 3.66 1 4 C-0.20882096 6.00016466 -0.20882096 6.00016466 -1 8 C-1.625 5.6875 -1.625 5.6875 -2 3 C-1.34 2.01 -0.68 1.02 0 0 Z " fill="#9EA3A8" transform="translate(200,112)"/>
<path d="M0 0 C0.66 0.66 1.32 1.32 2 2 C1.34 2 0.68 2 0 2 C0 2.66 0 3.32 0 4 C1.65 4.33 3.3 4.66 5 5 C5 5.33 5 5.66 5 6 C2.36 6 -0.28 6 -3 6 C-3 3 -3 3 -1.5 1.3125 C-0.7575 0.6628125 -0.7575 0.6628125 0 0 Z " fill="#9DA0A3" transform="translate(513,98)"/>
<path d="M0 0 C1.9375 0.375 1.9375 0.375 4 1 C4.33 1.66 4.66 2.32 5 3 C5.99 3 6.98 3 8 3 C7.67 3.99 7.34 4.98 7 6 C5.35 5.67 3.7 5.34 2 5 C2 4.34 2 3.68 2 3 C1.34 3 0.68 3 0 3 C0 2.01 0 1.02 0 0 Z " fill="#9EA2A7" transform="translate(395,99)"/>
<path d="M0 0 C0.66 0 1.32 0 2 0 C2.33 2.64 2.66 5.28 3 8 C2.01 8.33 1.02 8.66 0 9 C-1.53445094 5.93109813 -0.54984289 3.29905734 0 0 Z " fill="#9BA0A5" transform="translate(169,59)"/>
<path d="M0 0 C-2.2747813 1.38111722 -3.50171361 2.05694702 -6.1875 1.75 C-8 1 -8 1 -9 -1 C-5.22102349 -2.0497157 -3.35080929 -2.10976881 0 0 Z " fill="#BABEC2" transform="translate(525,102)"/>
<path d="M0 0 C0.66 0 1.32 0 2 0 C2.66 2.64 3.32 5.28 4 8 C3.01 8 2.02 8 1 8 C0.67 5.36 0.34 2.72 0 0 Z " fill="#999BA0" transform="translate(383,88)"/>
<path d="M0 0 C0.33 0.99 0.66 1.98 1 3 C-0.8125 6.1875 -0.8125 6.1875 -3 9 C-3.66 9 -4.32 9 -5 9 C-3.50163895 5.88801935 -1.80066242 2.9465385 0 0 Z " fill="#9DA0A7" transform="translate(504,80)"/>
</svg>
