<?xml version="1.0" encoding="UTF-8"?>
<svg version="1.1" xmlns="http://www.w3.org/2000/svg" width="422" height="422">
<path d="M0 0 C4.84219934 3.15696146 8.96241495 6.88093902 13 11 C16.10732904 9.61439191 18.2413724 7.97369275 20.6875 5.625 C28.30404003 -1.20853124 36.73170448 -3.41209848 46.77734375 -3.265625 C57.18084857 -2.408124 63.96050476 2.59790198 71 10 C72.01229649 11.26106034 73.01390231 12.53084922 74 13.8125 C76.90588523 17.38771835 80.09677662 18.34919078 84.3515625 19.86328125 C94.01508939 24.0109012 101.92686652 33.04714704 106.67578125 42.24609375 C108.21211587 46.60130783 108.49252511 50.43029757 108.75 55 C109.2086687 62.24168605 109.2086687 62.24168605 113.25 68 C114.17619141 68.70962891 114.17619141 68.70962891 115.12109375 69.43359375 C120.18630747 73.65636028 123.35640429 80.72998673 125 87 C125.24587414 89.81928645 125.23500733 92.60956347 125.1875 95.4375 C125.1865332 96.52514648 125.1865332 96.52514648 125.18554688 97.63476562 C125.15713561 101.14829205 124.94612491 104.29940925 124.3203125 107.77734375 C123.72247489 110.92051802 123.72247489 110.92051802 125.07421875 113.1953125 C125.60660156 113.83210938 126.13898438 114.46890625 126.6875 115.125 C132.80488675 123.55784622 134.86326086 132.70849961 133.6015625 143 C131.69434103 152.51133826 126.21043141 160.07026402 119.1875 166.625 C116.10037192 170.20009348 116.31554601 174.66321178 115.86230469 179.18457031 C114.58682182 190.25141951 108.28650812 197.97150962 100 205 C94.7734134 209.01912435 89.55507419 212.65271597 82.796875 213.16796875 C75.92255346 213.91376778 72.62948071 216.89311886 68.12426758 221.81567383 C62.84439203 227.4913759 55.84965962 231.61530658 47.99609375 232.23828125 C34.65738228 232.51647611 26.08646248 228.73213936 16.5 219.625 C16.005 219.08875 15.51 218.5525 15 218 C11.85709911 219.40695563 9.5899157 221.11027565 7.0625 223.4375 C-0.89171232 230.49814519 -8.43169327 232.52499107 -18.9765625 232.3125 C-28.80890173 231.29623755 -36.81944975 225.77475753 -43.0625 218.375 C-46.80882339 214.44823443 -51.21251004 213.65147856 -56.30322266 212.47900391 C-68.19746657 209.65798992 -76.9465506 202.17022501 -83.375 191.9375 C-86.02981538 187.20343897 -87.90577691 182.88237002 -88.0859375 177.37109375 C-88.30748997 170.62866915 -88.30748997 170.62866915 -92.1875 165.375 C-93.12916016 164.56095703 -93.12916016 164.56095703 -94.08984375 163.73046875 C-101.10126631 157.37860741 -104.44549418 148.88734579 -105.31640625 139.640625 C-105.63587229 130.20091873 -104.29257156 121.82728009 -98.1875 114.375 C-96.71506618 112.46712082 -96.02375357 111.48991742 -95.90625 109.06640625 C-96.1017074 107.58690229 -96.32939059 106.1114439 -96.58203125 104.640625 C-98.45676191 92.79653221 -96.84735438 82.99754271 -89.9921875 73.1015625 C-87.2010073 69.50701678 -84.80239813 66.53493209 -81 64 C-80.78729125 61.50468434 -80.78729125 61.50468434 -81.0625 58.625 C-81.29890741 48.24795908 -77.92715021 39.65226393 -71 32 C-70.32839844 31.236875 -69.65679687 30.47375 -68.96484375 29.6875 C-63.13866174 23.4400244 -57.08286113 19.69428704 -49 17 C-47.42336504 15.40667871 -47.42336504 15.40667871 -45.875 13.4375 C-33.84668095 -0.57876299 -18.16691857 -8.50366401 0 0 Z M-28.75 22.125 C-30.77042931 24.70665967 -31.77967919 26.64199357 -33 29.625 C-34.18481716 32.43777459 -34.84036946 33.8544545 -37.125 35.9375 C-40.58059219 37.21456668 -44.01863798 37.81654063 -47.6328125 38.4921875 C-51.5326429 39.32878478 -53.95237566 40.40954721 -56.18359375 43.796875 C-58.31848345 47.72684497 -59.21291948 50.47348956 -59 55 C-58.20335937 55.18175781 -57.40671875 55.36351562 -56.5859375 55.55078125 C-45.16438356 58.26027397 -45.16438356 58.26027397 -41 61 C-40.34 62.32 -39.68 63.64 -39 65 C-42.3 68.63 -45.6 72.26 -49 76 C-44.16383161 78.42668237 -44.16383161 78.42668237 -39 78 C-37.0850905 76.52921248 -37.0850905 76.52921248 -35.1875 74.6875 C-30.45056624 70.25617487 -26.02090294 68.14382701 -19.48828125 67.91015625 C-13.79062959 68.25044479 -8.69307712 69.6642344 -4 73 C-3.34 73.99 -2.68 74.98 -2 76 C-2.95399078 77.79398267 -3.91334026 79.58511655 -4.875 81.375 C-5.40867187 82.37273437 -5.94234375 83.37046875 -6.4921875 84.3984375 C-8 87 -8 87 -10 89 C-11.67381019 88.70462173 -13.33911955 88.36106097 -15 88 C-20.14838144 87.61683013 -20.14838144 87.61683013 -25 89 C-26.055052 94.15355011 -26.055052 94.15355011 -25.375 99.25 C-23.53902941 101.58668984 -21.38383018 103.24349355 -19 105 C-20.435938 110.22159274 -22.77578306 114.670042 -26 119 C-26.99 119.495 -26.99 119.495 -28 120 C-35.20964789 115.67421127 -41.90865197 110.00113607 -45 102 C-45.10570312 101.31679687 -45.21140625 100.63359375 -45.3203125 99.9296875 C-45.81344549 97.84540344 -45.81344549 97.84540344 -47.77734375 97.0234375 C-48.49019531 96.80945313 -49.20304687 96.59546875 -49.9375 96.375 C-52.75252096 95.50648174 -53.86379137 95.13620863 -56 93 C-56.13667702 87.20261621 -54.56594293 82.13188586 -52 77 C-56.15588866 74.92205567 -61.72341506 75.24971306 -66.07421875 76.68359375 C-71.35495691 79.44423995 -74.15041404 83.45124213 -76 89 C-76.06740865 90.56118428 -76.08514456 92.1250252 -76.0625 93.6875 C-76.05347656 94.49574219 -76.04445313 95.30398437 -76.03515625 96.13671875 C-76.02355469 96.75160156 -76.01195312 97.36648437 -76 98 C-75.23816406 97.96519531 -74.47632813 97.93039063 -73.69140625 97.89453125 C-64.62307131 97.65678464 -57.83299646 98.33952537 -50.75 104.3125 C-49.47906867 105.5200116 -48.22753403 106.74839667 -47 108 C-46.48050781 108.52078125 -45.96101563 109.0415625 -45.42578125 109.578125 C-42.3863762 112.88750586 -41.31855382 115.54024657 -41 120 C-45.42236821 124.27495594 -50.19839226 125.51298598 -56 127 C-58.49618156 124.04399553 -60.85257977 121.22113035 -63 118 C-68.07568865 117.07940941 -72.72584313 117.44400427 -77.4375 119.5 C-82.71439203 124.64818735 -84.24247595 129.18550318 -84.4375 136.5625 C-84.22008679 143.03991439 -83.15670255 147.04451873 -79.3125 152.3125 C-76.02692053 154.71008502 -72.97774466 155.20445107 -69 156 C-69.2165625 155.34515625 -69.433125 154.6903125 -69.65625 154.015625 C-71.73966402 147.18665683 -73.34580141 140.1316878 -72 133 C-70.21875 130.64453125 -70.21875 130.64453125 -68 129 C-62.39250021 129.17801587 -57.10850195 129.89149805 -53 134 C-52.7265625 136.5390625 -52.7265625 136.5390625 -52.625 139.625 C-52.14430321 146.21291012 -50.99615959 150.8978442 -46.34375 155.71484375 C-40.41794219 160.68135071 -33.58197047 162.5107792 -26 163.3203125 C-22.13422566 162.90756055 -20.54067647 161.52166614 -17.625 159 C-16.31402344 157.88625 -16.31402344 157.88625 -14.9765625 156.75 C-14.32429688 156.1725 -13.67203125 155.595 -13 155 C-9.32943063 156.47797262 -7.58914217 158.47615477 -5.25 161.625 C-4.63640625 162.44226563 -4.0228125 163.25953125 -3.390625 164.1015625 C-2.93171875 164.72804688 -2.4728125 165.35453125 -2 166 C-3.29186986 168.91576236 -3.90801419 169.93648599 -6.625 171.8125 C-9.36565783 173.8642757 -9.36565783 173.8642757 -9.4375 177.5 C-9.04073388 180.67412898 -8.42138915 182.25198098 -7 185 C-7.09646975 188.08703202 -7.92016064 188.92472289 -10.1875 191.0625 C-13.08758909 193.06033915 -15.70577834 194.7383832 -19 196 C-22.33473005 195.31343793 -23.13872669 193.81370987 -25.1875 191.0625 C-27 188 -27 188 -28 185 C-28.66 185 -29.32 185 -30 185 C-33.00803995 190.00940518 -32.46261366 195.34246246 -32 201 C-30.79313402 205.22403092 -29.24119464 207.157076 -25.5625 209.375 C-19.55803263 211.99573438 -12.7891081 212.33479944 -6.59375 210.15234375 C-1.36216195 207.27301824 0.89914698 203.51410959 3 198 C3.52781663 194.98642932 3.56281174 192.05819142 3.53125 189.00390625 C3.5350769 188.17092514 3.53890381 187.33794403 3.54284668 186.47972107 C3.54555187 184.72922548 3.5382889 182.9786885 3.52148438 181.22827148 C3.50008037 178.57247276 3.52131801 175.91938698 3.546875 173.26367188 C3.56235267 163.44459455 3.25047663 155.768504 -2.75 147.625 C-7.91284684 143.89627728 -13.40663554 142.42770984 -19.75390625 142.63671875 C-24.5155056 143.40685569 -28.61010241 145.61010241 -32 149 C-35.87545156 148.74329274 -37.99556105 146.48940667 -40.75 143.9375 C-41.54921875 143.20402344 -42.3484375 142.47054687 -43.171875 141.71484375 C-43.77515625 141.14894531 -44.3784375 140.58304687 -45 140 C-44.29096 135.11307813 -41.20883069 132.97711044 -37.6015625 129.90234375 C-29.50264114 123.98015952 -20.64992692 122.32950569 -10.875 123.75 C-6.46845311 124.56231799 -2.90632866 125.7384413 1 128 C1.66 128 2.32 128 3 128 C3.27060936 115.95171664 3.50743748 103.90327657 3.70202446 91.85351181 C3.79343799 86.25733171 3.89615777 80.66185088 4.02539062 75.06640625 C4.14985219 69.65904843 4.24373306 64.25191961 4.31708145 58.84363556 C4.35020912 56.78794481 4.39406152 54.732396 4.44918442 52.67717743 C4.92871038 36.41640164 4.92871038 36.41640164 -2 22 C-6.02178115 18.06962296 -10.00389658 17.2395154 -15.47265625 16.90234375 C-20.81559331 17.10879418 -24.56365941 18.89010046 -28.75 22.125 Z M30 22 C25.76048154 28.48320208 24.85512525 34.40953353 24.88647461 42.0612793 C24.88632858 42.98830658 24.88618256 43.91533386 24.8860321 44.87045288 C24.88672946 47.93839854 24.89451363 51.00628368 24.90234375 54.07421875 C24.90420856 56.1998542 24.90563216 58.32549007 24.90663147 60.4511261 C24.91045171 66.04889103 24.92027781 71.64663007 24.93133545 77.24438477 C24.94156016 82.95523732 24.94613137 88.66609406 24.95117188 94.37695312 C24.96190049 105.5846468 24.97897103 116.79232125 25 128 C25.61352325 127.79272781 26.22704651 127.58545563 26.85916138 127.37190247 C28.06993851 126.96508492 28.06993851 126.96508492 29.30517578 126.55004883 C30.10432404 126.28090164 30.90347229 126.01175446 31.72683716 125.73445129 C41.25665267 122.65539985 50.42127147 121.9614377 59.6640625 126.23046875 C65.26022063 129.38359108 69.73070577 133.22178328 74 138 C71.73921876 141.07466248 69.3026561 143.79535094 66.5 146.375 C65.9328125 146.89835938 65.365625 147.42171875 64.78125 147.9609375 C63 149 63 149 60.97265625 148.7890625 C58.03910708 147.61564283 55.6041337 145.7730272 53 144 C46.79466539 141.93155513 40.68465057 142.52449738 34.71484375 145.1015625 C30.07969649 147.52999956 27.89364338 151.26183403 25.86425781 155.92773438 C24.12290143 162.11791197 24.41318647 168.54993512 24.47851562 174.93774414 C24.49992601 177.42889089 24.47866676 179.91714511 24.453125 182.40820312 C24.38162155 194.73550852 24.38162155 194.73550852 29 206 C34.69412463 210.76447163 39.69962757 211.41845139 46.9140625 211.33984375 C51.55581024 210.82866394 54.69289501 209.28223954 58 206 C60.93258498 201.14290613 61.84745529 196.56278343 61 191 C60.18126847 188.5155733 59.1753473 186.35069461 58 184 C57.57074219 184.57234375 57.14148438 185.1446875 56.69921875 185.734375 C54.1328125 189.15625 51.56640625 192.578125 49 196 C43.67803767 194.47943933 39.18065534 192.44233398 35.4375 188.25 C34.81299743 185.03827249 36.01222545 182.91104841 37.37109375 180 C38.14792985 177.52956471 37.97890554 176.38426498 37 174 C35.62182123 172.47162557 35.62182123 172.47162557 33.9375 171.25 C32.4834375 170.13625 32.4834375 170.13625 31 169 C31.6197587 165.39713611 33.108946 163.13774101 35.3125 160.25 C36.20388672 159.05117188 36.20388672 159.05117188 37.11328125 157.828125 C39 156 39 156 43 156 C44.75390625 157.3125 44.75390625 157.3125 46.5625 159 C50.76123947 162.28732478 53.92463499 162.77134124 59.1875 162.45703125 C66.29002704 161.30287061 72.57006047 158.86315526 77 153 C80.40136268 147.34228782 81.42130519 142.73495034 80.84765625 136.1640625 C81 134 81 134 82.28515625 132.28515625 C85.62677714 129.78084356 89.62664173 129.19163139 93.6875 128.625 C96.98812703 129.16023682 97.96705342 130.3711169 100 133 C100.4609375 136.390625 100.4609375 136.390625 100.375 140.25 C100.36210937 140.91588135 100.34921875 141.5817627 100.3359375 142.26782227 C100.1844423 147.1198111 99.50157485 151.40142703 98 156 C102.73000833 154.84781848 106.14217961 153.96779736 109.4375 150.25 C113.0114141 142.81625868 114.13411037 136.27256249 111.75 128.3125 C110.07953409 123.7226217 108.11320082 121.24305931 103.875 118.75 C99.51447912 117.61247281 95.4314624 116.88300865 91 118 C89.17741313 119.93461349 88.15083111 121.74706754 87.03515625 124.15234375 C86 126 86 126 83 127 C77.47127443 126.01239794 72.50733176 124.62330096 69 120 C71.63162035 110.78932877 76.95674838 105.25009549 84.8125 100.1875 C90.9347943 97.90664526 97.51381295 97.82931087 104 98 C105.46067495 92.39741113 104.23956562 88.23713806 102 83 C99.1049556 79.34310181 96.5469548 77.11147784 92 76 C88.6477011 75.75069929 85.34199723 75.59777732 82 76 C81.34 76.66 80.68 77.32 80 78 C80.47050781 78.55171875 80.94101562 79.1034375 81.42578125 79.671875 C83.1802113 82.26651597 83.66258637 84.18127415 84.1875 87.25 C84.34605469 88.14203125 84.50460937 89.0340625 84.66796875 89.953125 C84.77753906 90.62859375 84.88710938 91.3040625 85 92 C80.52355592 95.83695207 80.52355592 95.83695207 77.50390625 96.77734375 C74.09749364 98.44069343 73.58706636 100.23996483 72.125 103.6875 C68.89422051 110.61415835 64.34944116 117.02049683 57 120 C52.95450063 118.73322747 51.60547631 116.22850079 49.625 112.625 C48.80902344 111.19027344 48.80902344 111.19027344 47.9765625 109.7265625 C47 107 47 107 47.671875 104.7890625 C49 103 49 103 51.625 100.75 C54.10533463 97.87803359 54.36669684 97.37196805 54.4375 93.8125 C54.39851321 89.98392511 54.39851321 89.98392511 52 88 C47.33027294 87.45871533 42.54647898 87.8267151 38 89 C34.43936212 84.94823965 30.90607873 80.38116589 31.0625 74.75 C32.94456856 71.23680536 35.53522044 70.17315317 39.1875 68.8125 C47.38215353 67.06609843 53.73906867 67.5657412 61 72 C62.1898688 73.07912343 63.35759174 74.18325312 64.5 75.3125 C66.61671179 77.29971884 67.50024196 77.96711063 70.43359375 78.16015625 C72.6765224 77.90472132 74.81096014 77.54601901 77 77 C73.73279209 72.61105071 70.45101522 68.24740335 67 64 C73.09446315 57.47021805 79.34259544 56.36885454 88 55 C87.07871473 49.43592188 86.31281642 44.9631286 82 41 C77.19519186 38.4054036 72.61630617 37.42727545 67.234375 36.625 C64.58662351 35.88437021 63.65075253 35.1830958 62 33 C61.0078125 30.66015625 61.0078125 30.66015625 60.125 28.0625 C58.49724371 23.78418271 57.05661911 21.39236512 53 19 C45.26952618 16.42317539 36.30118115 16.63729264 30 22 Z M-61.1875 175.5 C-62.27417969 175.7784375 -63.36085937 176.056875 -64.48046875 176.34375 C-65.31191406 176.5603125 -66.14335937 176.776875 -67 177 C-65.21538383 183.32727551 -63.78981139 187.70314461 -57.9375 191.25 C-55.879982 192.18049705 -55.879982 192.18049705 -53 192 C-52.35163958 190.25093469 -51.70641216 188.50070781 -51.0625 186.75 C-50.70285156 185.77546875 -50.34320313 184.8009375 -49.97265625 183.796875 C-49.18620345 181.53542839 -48.52748399 179.33203448 -48 177 C-52.69392885 173.11536923 -55.4893919 174.02952049 -61.1875 175.5 Z M78.04296875 175.921875 C77.36878906 176.60765625 76.69460938 177.2934375 76 178 C76.41572266 178.88751953 76.41572266 178.88751953 76.83984375 179.79296875 C80.43760984 187.64147627 80.43760984 187.64147627 81 192 C84.99633372 191.42909518 87.82044075 190.52734197 91 188 C93.3063568 184.41316588 95 181.30528053 95 177 C92.77884855 176.386854 90.54752254 175.81047842 88.3125 175.25 C87.07113281 174.92515625 85.82976562 174.6003125 84.55078125 174.265625 C80.91144365 173.6327514 80.91144365 173.6327514 78.04296875 175.921875 Z " fill="#4763E8" transform="translate(198,98)"/>
<path d="M0 0 C0.74765625 0.12890625 1.4953125 0.2578125 2.265625 0.390625 C40.19645145 7.17295821 73.39661399 25.32186716 101 52 C102.38445312 53.30710937 102.38445312 53.30710937 103.796875 54.640625 C120.26052808 70.54618815 133.65286952 90.13307827 143 111 C143.30196289 111.66725098 143.60392578 112.33450195 143.91503906 113.02197266 C147.09210536 120.14209696 149.54902941 126.10053213 149 134 C146.42710499 138.95520521 143.01766074 142.49116963 138 145 C132.64681462 145.35102855 129.28960999 145.51967999 125 142 C119.50328528 137.1545548 116.94617106 131.92425087 114.3972168 125.11962891 C100.40499623 88.15921665 71.64231202 60.15250845 36 44 C35.38688965 43.72172363 34.7737793 43.44344727 34.14208984 43.15673828 C16.49715958 35.30348836 -2.74004006 30.92659601 -22 30 C-23.64162109 29.91878906 -23.64162109 29.91878906 -25.31640625 29.8359375 C-43.51909363 29.38849714 -61.74976367 32.25536509 -79 38 C-79.67434082 38.22026855 -80.34868164 38.44053711 -81.04345703 38.66748047 C-117.54725069 50.80016786 -148.38426285 77.01483127 -166.19482422 111.12182617 C-172.54812034 123.8434262 -177.53127563 137.21638472 -181 151 C-179.12054688 150.91298828 -179.12054688 150.91298828 -177.203125 150.82421875 C-175.5521206 150.77731522 -173.90107589 150.73181569 -172.25 150.6875 C-171.0125 150.6246582 -171.0125 150.6246582 -169.75 150.56054688 C-167.398256 150.51313268 -165.30597843 150.52842406 -163 151 C-160.421875 153.51953125 -160.421875 153.51953125 -159 156 C-165.08408628 164.20476611 -171.1843562 172.35692498 -177.71484375 180.21484375 C-180.40755743 183.49673239 -183.0163592 186.83872496 -185.625 190.1875 C-189.59189967 195.2718556 -193.65770241 200.22791869 -198 205 C-204.3423169 200.1743241 -208.83879692 194.27511497 -213.55957031 187.92724609 C-216.17512968 184.42771632 -218.84193439 180.96727902 -221.5 177.5 C-222.59780828 176.06391829 -223.69546582 174.62772133 -224.79296875 173.19140625 C-229.18258178 167.45114306 -233.58972608 161.72439618 -238 156 C-236.671875 153.51953125 -236.671875 153.51953125 -234 151 C-230.40584853 150.35491547 -226.88703338 150.53010508 -223.25 150.6875 C-222.26644531 150.71005859 -221.28289062 150.73261719 -220.26953125 150.75585938 C-217.8448053 150.81471195 -215.42318017 150.89686569 -213 151 C-212.89695557 150.33935547 -212.79391113 149.67871094 -212.68774414 148.99804688 C-208.49013246 123.91373647 -197.42663312 100.72604533 -183 80 C-182.28328125 78.95585938 -181.5665625 77.91171875 -180.828125 76.8359375 C-151.80760964 36.35995556 -107.86794164 8.60540465 -59 0 C-57.73285156 -0.226875 -56.46570313 -0.45375 -55.16015625 -0.6875 C-37.12327202 -3.41290538 -17.97613362 -3.12038546 0 0 Z " fill="#4763E8" transform="translate(241,26)"/>
<path d="M0 0 C5.83120846 4.59610012 9.98361922 9.62082429 14.3125 15.625 C18.56969697 21.42501019 22.83876817 27.14287742 27.5 32.625 C37.99072802 44.97218407 37.99072802 44.97218407 40 51 C37.78172461 53.37238715 35.98220384 54.85827752 32.71240234 55.33007812 C30.02795811 55.39318165 27.37082556 55.34860984 24.6875 55.25 C23.29047852 55.22292969 23.29047852 55.22292969 21.86523438 55.1953125 C19.57575803 55.14834888 17.28841816 55.08269475 15 55 C14.90871826 55.6585498 14.81743652 56.31709961 14.72338867 56.99560547 C9.66173545 91.5652427 -11.479582 122.24687165 -35 147 C-35.51224121 147.54092285 -36.02448242 148.0818457 -36.55224609 148.63916016 C-57.11929123 170.20762074 -82.70483042 185.83314254 -110.93554688 195.30224609 C-112.70104719 195.89895848 -114.45365195 196.53359663 -116.203125 197.17578125 C-144.0538281 206.81927337 -177.31612535 206.71394452 -206 201 C-207.04486572 200.8151001 -207.04486572 200.8151001 -208.11083984 200.62646484 C-252.19273094 192.81037829 -295.76798552 162.45475895 -321.35302734 126.07617188 C-330.61781044 112.79173151 -338.34809858 99.39718985 -344.5625 84.4375 C-344.92182617 83.59203613 -345.28115234 82.74657227 -345.65136719 81.87548828 C-347.50705853 77.2399676 -348.68693038 73.93102727 -347 69 C-343.85054151 64.04589312 -339.67425584 59.77320495 -334 58 C-328.01263434 57.77824572 -325.03205866 60.18701897 -320.796875 64.015625 C-316.72788811 68.50920182 -314.66357087 73.93577319 -312.3125 79.4375 C-295.31815274 118.2162583 -265.72715901 146.26460238 -226.45214844 162.07275391 C-187.48856687 176.80629461 -142.8752408 176.22374623 -104.5625 159.625 C-68.0975272 143.07026609 -38.54078183 113.58623267 -23.85644531 76.07910156 C-21.23026012 68.83006155 -18.82480702 61.49436639 -17 54 C-18.86205078 54.21269531 -18.86205078 54.21269531 -20.76171875 54.4296875 C-22.40349421 54.57979269 -24.04543124 54.72813803 -25.6875 54.875 C-26.50412109 54.97296875 -27.32074219 55.0709375 -28.16210938 55.171875 C-34.16119491 55.65763091 -34.16119491 55.65763091 -36.69775391 53.66894531 C-38.08203125 52.0078125 -38.08203125 52.0078125 -40 49 C-39.50113281 48.3915625 -39.00226563 47.783125 -38.48828125 47.15625 C-36.47549684 44.69899076 -34.46469457 42.24012401 -32.45507812 39.78027344 C-31.45696502 38.5590921 -30.4582349 37.33841487 -29.45898438 36.11816406 C-23.77204572 29.17093314 -18.11569929 22.21461281 -12.6875 15.0625 C-8.68992146 9.81526925 -4.47866295 4.84145967 0 0 Z " fill="#4763E8" transform="translate(381,194)"/>
<path d="M0 0 C12.29581077 3.77714449 12.29581077 3.77714449 15.4375 7.875 C16.22043511 10.83275488 15.22545504 12.22660176 14 15 C13.6186926 17.32597511 13.27539746 19.65912158 13 22 C13.9075 22.226875 14.815 22.45375 15.75 22.6875 C19.44888324 24.18127977 20.77905658 25.75400577 23 29 C22.09098826 30.5877405 21.17242076 32.17001197 20.25 33.75 C19.73953125 34.63171875 19.2290625 35.5134375 18.703125 36.421875 C17.02287452 38.96537343 15.22580968 40.92902925 13 43 C8.87191457 41.96797864 6.48904713 40.58774447 3.4375 37.75 C0.57542317 35.42939716 -0.48831392 34.95787572 -4.2265625 35.265625 C-5.36867187 35.50796875 -6.51078125 35.7503125 -7.6875 36 C-11.06640625 36.70703125 -11.06640625 36.70703125 -14 37 C-19.05561597 33.25884418 -20.37834652 27.9328786 -22 22 C-18.95985816 18.37144361 -17.08084603 16.86989563 -12.4375 15.8125 C-9.36650664 14.93797871 -8.31041677 14.52953449 -6.671875 11.734375 C-6.02047781 9.96629691 -5.40888343 8.18299609 -4.83984375 6.38671875 C-3.82592017 3.5052894 -2.39052499 1.87826963 0 0 Z " fill="#4763E8" transform="translate(177,122)"/>
<path d="M0 0 C3.49209182 2.74378643 4.9271009 4.40038515 5.8125 8.8125 C6.74322929 11.90492312 7.20154081 13.05270955 10.0234375 14.7109375 C11.78947129 15.35831059 13.57015642 15.96711524 15.36328125 16.53515625 C18.2447106 17.54907983 19.87173037 18.98447501 21.75 21.375 C20.11101501 27.37128654 18.54028696 32.23793399 13.75 36.375 C10.18882207 36.31025131 7.27195163 35.51339094 3.84765625 34.60546875 C-0.11305409 34.3107879 -1.30746582 35.31712807 -4.375 37.75 C-9.52056347 41.77347798 -9.52056347 41.77347798 -13.25 42.375 C-20.4140579 34.53858715 -20.4140579 34.53858715 -22.25 29.375 C-21.33361168 25.48034965 -18.38321638 23.64658188 -15.25 21.375 C-14.59 21.045 -13.93 20.715 -13.25 20.375 C-13.4665625 19.34439453 -13.4665625 19.34439453 -13.6875 18.29296875 C-13.873125 17.39191406 -14.05875 16.49085938 -14.25 15.5625 C-14.435625 14.66917969 -14.62125 13.77585938 -14.8125 12.85546875 C-15.25 10.375 -15.25 10.375 -15.25 7.375 C-11.40604672 3.62480168 -5.7320193 -1.59222758 0 0 Z " fill="#4763E7" transform="translate(247.25,122.625)"/>
</svg>
